<?xml version="1.0" encoding="UTF-8"?>
<svg width="495.99219pt" height="98.457031pt" version="1.2" viewBox="0 0 495.99217 98.457032" xmlns="http://www.w3.org/2000/svg"><defs><clipPath id="b"><path d="m809 53h36.58984v42h-36.58984z"/></clipPath><clipPath id="a"><path d="m836 108h9.58984v15h-9.58984z"/></clipPath></defs><g transform="translate(-349.59766,-24.34375)"><g fill="currentColor"><path d="m513.37109 73.082031c-1.83984-0.871093-3.86718-1.476562-6.09375-1.816406l-3.48437-0.582031c-2.46485-0.382813-4.39063-0.941406-5.76953-1.664063-1.37891-0.730469-2.06641-1.9375-2.06641-3.632812 0-2.222657 0.95313-3.808594 2.86719-4.75 1.91015-0.945313 4.53515-1.417969 7.87109-1.417969 1.88672 0 3.5586 0.148438 5.00781 0.4375 1.45313 0.289062 2.97657 0.726562 4.57422 1.304688h0.57813v-5.949219c-1.16016-0.433594-2.625-0.808594-4.39063-1.125-1.76562-0.3125-3.58984-0.472657-5.47656-0.472657-4.25781 0-7.65625 0.570313-10.19531 1.707032-2.53906 1.136718-4.38281 2.636718-5.51563 4.5-1.13672 1.859375-1.70703 3.855468-1.70703 5.984375 0 3.046875 0.99219 5.40625 2.97656 7.078125 1.98047 1.667968 5.03125 2.839844 9.14454 3.519531l3.48046 0.578125c2.46875 0.390625 4.40235 0.945312 5.80469 1.667969 1.40625 0.726562 2.10547 1.960937 2.10547 3.703125 0 1.546875-0.41016 2.746094-1.23437 3.589844-0.82032 0.847656-1.82422 1.441406-3.01172 1.777343-1.1836 0.339844-2.34766 0.546875-3.48047 0.617188-1.13672 0.07422-2.04688 0.109375-2.72266 0.109375-2.17578 0-4.36719-0.238282-6.5664-0.726563-2.20313-0.480469-4.17188-1.109375-5.91407-1.886719h-0.58203v6.386719c1.74219 0.582031 3.6875 1.066407 5.83985 1.453125 2.15625 0.386719 4.46484 0.582032 6.93359 0.582032 5.80469 0 10.10937-1.003907 12.91797-3.015626 2.80469-2.003906 4.20703-4.96875 4.20703-8.886718 0-2.226563-0.55859-4.078125-1.66797-5.550782-1.11328-1.476562-2.58984-2.648437-4.42969-3.519531"/><path d="m543.48828 87.921875c-0.96875 0.214844-1.95703 0.324219-2.97266 0.324219-2.61328 0-4.52734-0.617188-5.73437-1.851563-1.21094-1.230469-1.8125-3.226562-1.8125-5.984375v-20.609375h11.31641v-5.804687h-11.31641v-10.742188h-6.67969v10.742188h-6.09375v5.804687h6.09375v21.191407c0 2.609374 0.46094 4.894531 1.37891 6.855468 0.92187 1.960938 2.39453 3.484375 4.42969 4.570313 2.03125 1.089843 4.73828 1.636719 8.125 1.636719 1.30859 0 2.51562-0.136719 3.6289-0.402344s2.03125-0.566406 2.75781-0.90625v-5.660156h-0.58203c-0.72265 0.339843-1.57031 0.617187-2.53906 0.835937"/><path d="m567.36328 53.707031c-1.25781 0-2.82031 0.09375-4.67969 0.289063-1.86328 0.191406-3.72656 0.460937-5.58984 0.796875-1.86328 0.339843-3.42188 0.75-4.67969 1.234375l-0.14453 0.582031c0.19141 0.871094 0.32813 2.054687 0.39844 3.554687 0.0742 1.5 0.12109 3.023438 0.14453 4.570313 0.0234 1.550781 0.0391 2.808594 0.0391 3.773437v24.964844h6.67578v-28.738281c0-1.664063-0.0781-3.128906-0.22265-4.414063 0.84765-0.148437 1.75-0.296874 2.76172-0.445312 1.64453-0.242188 3.21484-0.363281 4.71484-0.363281 0.72656 0 1.52344 0.02344 2.39844 0.07031 0.86718 0.05078 1.61718 0.125 2.24609 0.21875h0.58203v-5.804687c-0.48437-0.09766-1.08984-0.167969-1.8125-0.21875-0.72656-0.04687-1.67187-0.07031-2.83203-0.07031"/><path d="m591.74609 88.828125c-3.48437 0-6.14453-0.546875-7.98437-1.632813-1.83594-1.089843-2.75391-2.867187-2.75391-5.335937 0-2.609375 0.95313-4.425781 2.86328-5.441406 1.91016-1.015625 4.82813-1.523438 8.7461-1.523438 1.6914 0 3.50781 0.183594 5.4414 0.546875 0.86328 0.160156 1.65625 0.332032 2.39453 0.507813v6.78125c0 0.628906 0.0117 1.234375 0.0352 1.816406 0.0273 0.578125 0.0625 1.136719 0.10938 1.667969 0.043 0.46875 0.0976 0.910156 0.16015 1.339844-1.09375 0.3125-2.22265 0.589843-3.42187 0.800781-1.79297 0.316406-3.65625 0.472656-5.58985 0.472656zm15.41797-6.097656c-0.0234-1.546875-0.0351-2.804688-0.0351-3.773438v-9.578125c0-3.433594-0.4336-6.214844-1.30469-8.34375-0.8711-2.128906-2.09375-3.761718-3.66406-4.898437-1.57427-1.136719-3.38677-1.921875-5.44146-2.359375-2.05859-0.4375-4.29688-0.652344-6.71484-0.652344-1.88672 0-3.90625 0.179688-6.0586 0.542969-2.15625 0.363281-4.10156 0.910156-5.84375 1.632812v5.953125h0.58203c1.16016-0.582031 2.72266-1.113281 4.67969-1.597656 1.96094-0.484375 3.88281-0.726562 5.76953-0.726562 2.51563 0 4.60938 0.253906 6.27735 0.761718 1.66796 0.507813 2.92578 1.523438 3.77343 3.046875 0.84766 1.523438 1.26953 3.835938 1.26953 6.929688v0.992187c-0.6914-0.195312-1.42187-0.390625-2.21093-0.589844-1.81641-0.460937-4.07813-0.691406-6.78516-0.691406-3.48437 0-6.49609 0.460938-9.03516 1.378906-2.53906 0.921876-4.5 2.300782-5.8789 4.136719-1.37891 1.839844-2.06641 4.160157-2.06641 6.964844 0 4.210937 1.41406 7.34375 4.24219 9.398437 2.83203 2.058594 7.07812 3.085938 12.73828 3.085938 1.44922 0 3.12891-0.121094 5.04297-0.363281 1.91016-0.242188 3.83203-0.582031 5.76953-1.015625 1.93359-0.433594 3.69922-0.945313 5.29688-1.523438l0.14453-0.582031c-0.19532-0.871094-0.32813-2.054687-0.39844-3.554687-0.0742-1.5-0.12109-3.023438-0.14844-4.574219"/><path d="m634.92578 87.921875c-0.97266 0.214844-1.96094 0.324219-2.98047 0.324219-2.60937 0-4.51953-0.617188-5.73047-1.851563-1.21093-1.230469-1.8125-3.226562-1.8125-5.984375v-20.609375h11.32032v-5.804687h-11.32032v-10.742188h-6.67578v10.742188h-6.09765v5.804687h6.09765v21.191407c0 2.609374 0.45703 4.894531 1.37891 6.855468 0.91797 1.960938 2.39453 3.484375 4.42578 4.570313 2.03125 1.089843 4.73828 1.636719 8.125 1.636719 1.30859 0 2.51562-0.136719 3.62891-0.402344 1.11328-0.265625 2.03125-0.566406 2.75781-0.90625v-5.660156h-0.57813c-0.72656 0.339843-1.57422 0.617187-2.53906 0.835937"/><path d="m658.65234 88.828125c-3.48437 0-6.14453-0.546875-7.98047-1.632813-1.84375-1.089843-2.76171-2.867187-2.76171-5.335937 0-2.609375 0.95703-4.425781 2.86718-5.441406 1.91016-1.015625 4.82813-1.523438 8.7461-1.523438 1.6914 0 3.50781 0.183594 5.44531 0.546875 0.85937 0.160156 1.65234 0.332032 2.39062 0.507813v6.78125c0 0.628906 0.0117 1.234375 0.0352 1.816406 0.0273 0.578125 0.0625 1.136719 0.11328 1.667969 0.0391 0.46875 0.0977 0.910156 0.15625 1.339844-1.09375 0.3125-2.22265 0.589843-3.42578 0.800781-1.78906 0.316406-3.65234 0.472656-5.58594 0.472656zm15.42188-6.097656c-0.0273-1.546875-0.0391-2.804688-0.0391-3.773438v-9.578125c0-3.433594-0.4336-6.214844-1.30469-8.34375-0.8711-2.128906-2.09375-3.761718-3.66406-4.898437-1.57418-1.136719-3.38668-1.921875-5.44137-2.359375-2.05859-0.4375-4.29688-0.652344-6.71484-0.652344-1.88672 0-3.90625 0.179688-6.0586 0.542969-2.15234 0.363281-4.09765 0.910156-5.84375 1.632812v5.953125h0.58203c1.16407-0.582031 2.72266-1.113281 4.67969-1.597656 1.96094-0.484375 3.88281-0.726562 5.76953-0.726562 2.51563 0 4.60938 0.253906 6.27735 0.761718 1.66796 0.507813 2.92578 1.523438 3.77343 3.046875 0.84766 1.523438 1.26953 3.835938 1.26953 6.929688v0.992187c-0.6914-0.195312-1.42187-0.390625-2.21093-0.589844-1.8125-0.460937-4.07813-0.691406-6.78516-0.691406-3.48437 0-6.49609 0.460938-9.03516 1.378906-2.53906 0.921876-4.5 2.300782-5.8789 4.136719-1.37891 1.839844-2.06641 4.160157-2.06641 6.964844 0 4.210937 1.41406 7.34375 4.2461 9.398437 2.82812 2.058594 7.07031 3.085938 12.73437 3.085938 1.44922 0 3.12891-0.121094 5.04297-0.363281 1.91016-0.242188 3.83203-0.582031 5.76953-1.015625 1.93359-0.433594 3.69922-0.945313 5.29688-1.523438l0.14453-0.582031c-0.19141-0.871094-0.32813-2.054687-0.39844-3.554687-0.0742-1.5-0.12109-3.023438-0.14453-4.574219"/><path d="m705.82031 73.082031c-1.83984-0.871093-3.87109-1.476562-6.09375-1.816406l-3.48437-0.582031c-2.46485-0.382813-4.39063-0.941406-5.76953-1.664063-1.37891-0.730469-2.06641-1.9375-2.06641-3.632812 0-2.222657 0.95312-3.808594 2.86328-4.75 1.91406-0.945313 4.53906-1.417969 7.875-1.417969 1.88672 0 3.55469 0.148438 5.00781 0.4375 1.45313 0.289062 2.97657 0.726562 4.57032 1.304688h0.58203v-5.949219c-1.16016-0.433594-2.625-0.808594-4.39063-1.125-1.76562-0.3125-3.58984-0.472657-5.47656-0.472657-4.26172 0-7.66016 0.570313-10.19922 1.707032-2.53906 1.136718-4.37891 2.636718-5.51562 4.5-1.13672 1.859375-1.70313 3.855468-1.70313 5.984375 0 3.046875 0.99219 5.40625 2.97656 7.078125 1.98047 1.667968 5.03125 2.839844 9.14063 3.519531l3.48437 0.578125c2.46875 0.390625 4.40235 0.945312 5.80469 1.667969 1.40234 0.726562 2.10547 1.960937 2.10547 3.703125 0 1.546875-0.41406 2.746094-1.23438 3.589844-0.82421 0.847656-1.82421 1.441406-3.01171 1.777343-1.1836 0.339844-2.34766 0.546875-3.48047 0.617188-1.14063 0.07422-2.04688 0.109375-2.72266 0.109375-2.17578 0-4.36719-0.238282-6.56641-0.726563-2.20312-0.480469-4.17578-1.109375-5.91406-1.886719h-0.58203v6.386719c1.74219 0.582031 3.6875 1.066407 5.83984 1.453125 2.15235 0.386719 4.46485 0.582032 6.92969 0.582032 5.8086 0 10.11328-1.003907 12.92188-3.015626 2.80468-2.003906 4.20703-4.96875 4.20703-8.886718 0-2.226563-0.5586-4.078125-1.67188-5.550782-1.10937-1.476562-2.58593-2.648437-4.42578-3.519531"/><path d="m726.03125 55.554688c-3.16797 1.621093-5.61328 3.957031-7.33203 7.003906-1.71485 3.046875-2.57422 6.726562-2.57422 11.027344 0 4.308593 0.83594 7.984374 2.50391 11.03125 1.66796 3.050781 4.08984 5.382812 7.25781 7.003906s6.97656 2.433594 11.42969 2.433594c3.57812 0 6.57812-0.535157 8.99609-1.597657v-5.953125h-0.57813c-1.01562 0.488282-2.23828 0.898438-3.66406 1.234375-1.42969 0.339844-3.01172 0.507813-4.7539 0.507813-4.35547 0-7.83985-1.234375-10.44922-3.699219-2.61328-2.46875-3.92188-6.121094-3.92188-10.960937 0-4.882813 1.3086-8.546876 3.92188-10.992188 2.60937-2.441406 6.09375-3.664062 10.44922-3.664062 1.74218 0 3.32421 0.15625 4.7539 0.472656 1.42578 0.316406 2.64844 0.738281 3.66406 1.269531h0.57813v-5.949219c-2.41797-1.066406-5.41797-1.597656-8.99609-1.597656-4.35547 0-8.11719 0.808594-11.28516 2.429688"/><path d="m767.79297 88.828125c-3.48438 0-6.14453-0.546875-7.98047-1.632813-1.83984-1.089843-2.76172-2.867187-2.76172-5.335937 0-2.609375 0.95703-4.425781 2.87109-5.441406 1.90625-1.015625 4.82422-1.523438 8.74219-1.523438 1.69141 0 3.50781 0.183594 5.44141 0.546875 0.86719 0.160156 1.65625 0.332032 2.39844 0.507813v6.78125c0 0.628906 8e-3 1.234375 0.0312 1.816406 0.0273 0.578125 0.0625 1.136719 0.10937 1.667969 0.043 0.46875 0.10156 0.910156 0.16016 1.339844-1.09375 0.3125-2.21875 0.589843-3.42188 0.800781-1.78906 0.316406-3.65625 0.472656-5.58984 0.472656zm15.42187-6.097656c-0.0273-1.546875-0.0351-2.804688-0.0351-3.773438v-9.578125c0-3.433594-0.4375-6.214844-1.3086-8.34375-0.87114-2.128906-2.0938-3.761718-3.66411-4.898437s-3.38672-1.921875-5.44141-2.359375c-2.05859-0.4375-4.29687-0.652344-6.71484-0.652344-1.88672 0-3.90625 0.179688-6.05859 0.542969-2.15235 0.363281-4.10157 0.910156-5.84375 1.632812v5.953125h0.58203c1.16015-0.582031 2.72265-1.113281 4.68359-1.597656 1.95703-0.484375 3.88281-0.726562 5.76563-0.726562 2.51562 0 4.60937 0.253906 6.27734 0.761718 1.67188 0.507813 2.92969 1.523438 3.77344 3.046875 0.84765 1.523438 1.27344 3.835938 1.27344 6.929688v0.992187c-0.69532-0.195312-1.42579-0.390625-2.21485-0.589844-1.8164-0.460937-4.07422-0.691406-6.78515-0.691406-3.48438 0-6.49219 0.460938-9.03516 1.378906-2.53906 0.921876-4.5 2.300782-5.87891 4.136719-1.3789 1.839844-2.0664 4.160157-2.0664 6.964844 0 4.210937 1.41406 7.34375 4.24218 9.398437 2.83204 2.058594 7.07813 3.085938 12.73829 3.085938 1.44921 0 3.13281-0.121094 5.04296-0.363281 1.91016-0.242188 3.83594-0.582031 5.76954-1.015625 1.93359-0.433594 3.69921-0.945313 5.29687-1.523438l0.14453-0.582031c-0.19531-0.871094-0.32422-2.054687-0.39844-3.554687-0.0742-1.5-0.12109-3.023438-0.14453-4.574219"/><path d="m793.77344 38.902344c0.1914 0.871094 0.32422 2.054687 0.39843 3.554687 0.0703 1.5 0.1211 3.023438 0.14454 4.570313 0.0273 1.550781 0.0351 2.808594 0.0351 3.773437v42.671875h6.67969v-55.152344h-7.11328l-0.14453 0.582032"/></g><g clip-path="url(#b)"><path d="m838.32812 70.539062h-21.80468c0.20312-2.371093 0.69531-4.332031 1.48828-5.875 1.0625-2.082031 2.46484-3.558593 4.20703-4.429687 1.74219-0.867187 3.62891-1.304687 5.66016-1.304687 3.48437 0 6.09765 0.933593 7.83984 2.792968 1.74219 1.863282 2.60937 4.609375 2.60937 8.238282zm6.96875 3.484376c0.14454-4.160157-0.35156-7.8125-1.48828-10.957032-1.13672-3.144531-3.01172-5.585937-5.625-7.328125-2.60937-1.742187-6.04687-2.613281-10.30468-2.613281-3.67579 0-6.88282 0.847656-9.61329 2.539062-2.73437 1.695313-4.86328 4.078126-6.38671 7.148438-1.52344 3.074219-2.28516 6.664062-2.28516 10.773438 0 3.292968 0.43359 6.207031 1.30469 8.746093 0.87109 2.539063 2.21484 4.679688 4.02734 6.421875 1.8125 1.742188 4.08594 3.0625 6.82031 3.957032 2.73438 0.894531 5.94141 1.34375 9.61719 1.34375 2.61328 0 4.85938-0.21875 6.75-0.65625 1.88672-0.433594 3.41016-0.941407 4.57031-1.523438v-5.949219h-0.58203c-1.01562 0.578125-2.39453 1.113281-4.13281 1.59375-1.74609 0.488281-3.84766 0.726563-6.31641 0.726563-2.94922 0-5.57422-0.445313-7.87109-1.339844-2.30078-0.898438-4.10156-2.40625-5.40625-4.535156-1.00391-1.632813-1.61328-3.746094-1.84766-6.316406h28.69532l0.0742-2.03125" fill="currentColor"/></g><path d="m416.16016 58.472656-21.03516 28.722656-0.10156 0.140626c-3.69532 5.472656-9.83985 8.742187-16.4336 8.742187-10.77734 0-19.57031-8.648437-19.80859-19.371094-0.24219-10.878906 8.48437-20.019531 19.36328-20.253906 6.28516-0.140625 12.14453 2.632813 16.02344 7.558594l3.21875 4.398437c1.82422 2.492188 5.53906 2.507813 7.38281 0.03125 1.20313-1.617187 1.21484-3.828125 0.0234-5.453125l-3.26563-4.457031-0.0859-0.117188c-4.16016-5.316406-9.88672-8.933593-16.28516-10.402343 1.84375-3.589844 4.50391-6.769531 7.75-9.199219 4.62109-3.460938 10.125-5.289062 15.91797-5.289062 5.78515 0 11.28515 1.824218 15.90234 5.277343 3.25391 2.433594 5.91797 5.617188 7.76563 9.210938-6.42188 1.476562-12.17188 5.109375-16.33203 10.460937zm26.11328-11.023437c-2.40235-6.3125-6.61719-11.9375-12.05078-16-6.21485-4.648438-13.61719-7.105469-21.39844-7.105469-7.79297 0-15.19922 2.460938-21.41797 7.121094-5.42578 4.0625-9.63281 9.679687-12.03125 15.984375-14.48047 1.601562-25.77734 13.910156-25.77734 28.8125 0 15.988281 13.00781 28.992191 28.99218 28.992191 9.61719 0 18.57813-4.7461 23.98828-12.703129l20.86719-28.492187c3.86328-4.9375 9.70703-7.726563 15.99219-7.609375 10.89062 0.203125 19.65234 9.332031 19.42969 20.222656-0.21875 10.738281-9.01953 19.40625-19.8086 19.40625-4.75 0-9.27734-1.707031-12.82031-4.710937-2.02734-1.71875-5.09375-1.347657-6.66406 0.800781-1.41797 1.941406-1.10156 4.648437 0.73047 6.203125 5.17968 4.394536 11.80468 6.882816 18.7539 6.882816 15.98438 0 28.99219-13.00391 28.99219-28.992191 0-14.902344-11.29687-27.210938-25.77734-28.8125" fill="#385eb3"/><path d="m419.66406 87.558594c0 2.636718-2.13672 4.773437-4.77344 4.773437-2.63671 0-4.77343-2.136719-4.77343-4.773437 0-2.636719 2.13672-4.777344 4.77343-4.777344 2.63672 0 4.77344 2.140625 4.77344 4.777344" fill="#45b038"/><g fill="currentColor"><path d="m705.57031 113.28906-2.79297-7.41015-2.89453 7.41015zm-1.96484-8.78515 5.66797 14.45312h-1.47657l-1.76171-4.49609h-6.57813l-1.74219 4.49609h-1.45703l5.8086-14.45312h1.53906"/><path d="m711.45703 108.51172v1.80078h0.043c0.24219-0.63281 0.67578-1.14453 1.29297-1.52734 0.62109-0.38282 1.30469-0.57813 2.04687-0.57813 0.72657 0 1.33594 0.0977 1.83203 0.28516 0.48829 0.1875 0.88672 0.45312 1.1836 0.80078 0.29687 0.34375 0.5039 0.76562 0.625 1.26562 0.12109 0.4961 0.18359 1.05469 0.18359 1.67579v6.72265h-1.27344v-6.51953c0-0.44531-0.043-0.85937-0.125-1.24219-0.0781-0.38672-0.22265-0.71875-0.42187-1.0039-0.20313-0.28125-0.47656-0.50391-0.82031-0.66797-0.34375-0.16016-0.77344-0.24219-1.28516-0.24219-0.51562 0-0.96875 0.0898-1.36719 0.27344-0.39843 0.17969-0.73437 0.43359-1.01172 0.75-0.27734 0.3164-0.49218 0.6914-0.64843 1.13281-0.15235 0.4375-0.23828 0.91406-0.25391 1.42578v6.09375h-1.27344v-10.44531h1.27344"/><path d="m727.65234 116.0625c0.24219 0.5 0.57422 0.89844 1 1.19531 0.42188 0.29297 0.92578 0.50782 1.50782 0.63672 0.57812 0.12891 1.19921 0.19141 1.86328 0.19141 0.375 0 0.78906-0.0547 1.23437-0.16406 0.44531-0.10547 0.85938-0.27735 1.2461-0.51563 0.38281-0.23437 0.70312-0.53906 0.96093-0.91016 0.25391-0.37109 0.38282-0.82031 0.38282-1.34765 0-0.40235-0.0899-0.75391-0.27344-1.05078-0.1836-0.29688-0.41797-0.54688-0.70703-0.7461-0.29297-0.20703-0.61328-0.37109-0.96485-0.5-0.34765-0.125-0.6914-0.23047-1.03125-0.3125l-3.21484-0.78906c-0.42188-0.10547-0.82813-0.24219-1.22656-0.40234-0.39844-0.16407-0.7461-0.37891-1.04297-0.64844-0.29688-0.26953-0.53516-0.60156-0.71875-0.99219-0.17969-0.39062-0.27344-0.87109-0.27344-1.4375 0-0.35156 0.0703-0.76172 0.20313-1.23437 0.13281-0.47266 0.38671-0.91797 0.75781-1.33594 0.37109-0.41797 0.88281-0.77344 1.53125-1.0625 0.64453-0.28906 1.47656-0.43359 2.48828-0.43359 0.71484 0 1.39453 0.0937 2.04297 0.28125 0.64844 0.1875 1.21484 0.47265 1.69922 0.84765 0.48828 0.37891 0.875 0.84766 1.16406 1.41016 0.29297 0.55859 0.4375 1.21094 0.4375 1.95312h-1.375c-0.0273-0.55468-0.15234-1.03515-0.375-1.44922-0.22266-0.41015-0.51563-0.7539-0.87109-1.03125-0.35938-0.27734-0.76954-0.48437-1.23438-0.6289-0.46484-0.14063-0.95703-0.21094-1.46875-0.21094-0.47266 0-0.92969 0.0508-1.36719 0.15234-0.4375 0.10157-0.82031 0.26172-1.15234 0.48438-0.32813 0.22266-0.59766 0.51562-0.80078 0.88281-0.20313 0.36328-0.30078 0.8125-0.30078 1.35547 0 0.33594 0.0547 0.62891 0.17187 0.87891 0.11328 0.25 0.27344 0.46093 0.47656 0.63672 0.19922 0.17578 0.4336 0.3164 0.69532 0.42578 0.26562 0.10937 0.54297 0.19531 0.83984 0.26172l3.52344 0.87109c0.51172 0.13672 0.99219 0.30078 1.44531 0.49609 0.45313 0.19532 0.85156 0.44141 1.19531 0.73047s0.61328 0.64453 0.8086 1.0625c0.19531 0.41797 0.29297 0.92188 0.29297 1.51563 0 0.16406-0.0156 0.3789-0.0508 0.64843-0.0312 0.27344-0.11328 0.5586-0.24218 0.86329-0.12891 0.30078-0.3125 0.60546-0.54688 0.91796-0.23437 0.3125-0.55859 0.58985-0.97265 0.83985-0.41016 0.25-0.91797 0.45312-1.52735 0.60937-0.60547 0.15235-1.33203 0.23047-2.18359 0.23047s-1.64063-0.0977-2.3711-0.29297c-0.72656-0.19531-1.34765-0.49609-1.85937-0.90234-0.51172-0.40234-0.91016-0.92188-1.1875-1.55859-0.27344-0.63282-0.39063-1.39454-0.35156-2.28516h1.3789c-0.0156 0.74219 0.0977 1.36328 0.34375 1.86328"/><path d="m740.64453 104.50391v6.27343h8.58203v-6.27343h1.375v14.45312h-1.375v-7.0039h-8.58203v7.0039h-1.375v-14.45312h1.375"/><path d="m754.85156 104.50391v14.45312h-1.375v-14.45312h1.375"/><path d="m773.17969 107.38672c-0.27735-0.4375-0.61328-0.80469-1.01172-1.10156-0.39844-0.29688-0.83594-0.52344-1.31641-0.67578-0.48047-0.15625-0.98047-0.23438-1.50781-0.23438-0.95703 0-1.78125 0.17969-2.46875 0.54688-0.6875 0.36328-1.25391 0.84765-1.69141 1.44531-0.4375 0.60156-0.76172 1.28125-0.96875 2.03515-0.21093 0.75782-0.3164 1.53125-0.3164 2.32813 0 0.78125 0.10547 1.55469 0.3164 2.31641 0.20703 0.76171 0.53125 1.44531 0.96875 2.04296 0.4375 0.60157 1.00391 1.08594 1.69141 1.44922s1.51172 0.54688 2.46875 0.54688c0.67578 0 1.28125-0.1211 1.82031-0.36328 0.53906-0.2461 1.00781-0.57422 1.39844-0.99219 0.39062-0.41797 0.70703-0.91016 0.95312-1.46875 0.24219-0.55859 0.39454-1.16406 0.46485-1.8125h1.375c-0.0937 0.89062-0.30469 1.69531-0.62891 2.41016-0.32422 0.71484-0.74219 1.32031-1.2539 1.82031-0.51172 0.5-1.11719 0.88672-1.8125 1.15234-0.69532 0.27344-1.46485 0.40625-2.31641 0.40625-1.13281 0-2.12891-0.20703-2.98438-0.61719-0.85546-0.41015-1.57031-0.96093-2.13671-1.64843-0.56641-0.6875-0.99219-1.48438-1.27344-2.38672-0.28516-0.90625-0.42578-1.85938-0.42578-2.85547 0-1 0.14062-1.94922 0.42578-2.85547 0.28125-0.90234 0.70703-1.70312 1.27344-2.39844 0.5664-0.69531 1.28125-1.24609 2.13671-1.65625 0.85547-0.41406 1.85157-0.61718 2.98438-0.61718 0.6875 0 1.35937 0.0977 2.01562 0.30078 0.65235 0.20312 1.2461 0.5039 1.77735 0.90234 0.53515 0.39453 0.98047 0.88672 1.33984 1.46484 0.35547 0.58204 0.58203 1.25 0.67578 2.00391h-1.375c-0.12109-0.55078-0.32031-1.04687-0.59765-1.48828"/><path d="m779.89062 109.66406c-0.46093 0.25782-0.83984 0.59375-1.14453 1.01172-0.30468 0.42188-0.53125 0.89453-0.6875 1.42969-0.15625 0.53125-0.23437 1.07422-0.23437 1.62891 0 0.55468 0.0781 1.09765 0.23437 1.6289 0.15625 0.53516 0.38282 1.00781 0.6875 1.42578 0.30469 0.41797 0.6836 0.75782 1.14453 1.01172 0.45704 0.25781 0.99219 0.38672 1.59766 0.38672s1.14063-0.12891 1.59766-0.38672c0.46093-0.2539 0.83984-0.59375 1.14453-1.01172s0.53125-0.89062 0.6875-1.42578c0.15625-0.53125 0.23437-1.07422 0.23437-1.6289 0-0.55469-0.0781-1.09766-0.23437-1.62891-0.15625-0.53516-0.38281-1.00781-0.6875-1.42969-0.30469-0.41797-0.6836-0.7539-1.14453-1.01172-0.45703-0.2539-0.99219-0.38281-1.59766-0.38281s-1.14062 0.12891-1.59766 0.38281zm3.71485-1.01172c0.61328 0.29688 1.1289 0.69532 1.54687 1.19532s0.73438 1.08203 0.94922 1.75c0.21485 0.66797 0.32422 1.38281 0.32422 2.13672 0 0.7539-0.10937 1.46875-0.32422 2.13281-0.21484 0.66797-0.53125 1.2539-0.94922 1.75-0.41797 0.5039-0.93359 0.89453-1.54687 1.1875-0.61719 0.28906-1.32031 0.43359-2.11719 0.43359-0.79687 0-1.5-0.14453-2.11719-0.43359-0.61328-0.29297-1.1289-0.6836-1.54687-1.1875-0.41797-0.4961-0.73438-1.08203-0.95313-1.75-0.21484-0.66406-0.32031-1.37891-0.32031-2.13281 0-0.75391 0.10547-1.46875 0.32031-2.13672 0.21875-0.66797 0.53516-1.25 0.95313-1.75s0.93359-0.89844 1.54687-1.19532c0.61719-0.29687 1.32032-0.44531 2.11719-0.44531 0.79688 0 1.5 0.14844 2.11719 0.44531"/><path d="m789.36328 108.51172v1.76172h0.0586c0.33594-0.64844 0.77735-1.15625 1.32422-1.51953 0.54688-0.36328 1.2461-0.54688 2.09766-0.54688 0.6875 0 1.30859 0.16797 1.87109 0.50781 0.5586 0.33594 0.9336 0.84766 1.125 1.53907 0.3086-0.69141 0.76563-1.20313 1.375-1.53907 0.60547-0.33984 1.25391-0.50781 1.94141-0.50781 2.30859 0 3.46094 1.22266 3.46094 3.66406v7.08594h-1.27344v-7.02344c0-0.86328-0.18359-1.52343-0.54688-1.97265-0.36328-0.45313-1.0039-0.67969-1.92187-0.67969-0.55469 0-1.01172 0.10547-1.37891 0.3125-0.36328 0.21094-0.65234 0.48828-0.86718 0.83984-0.21875 0.35157-0.36719 0.75391-0.45704 1.20704-0.0859 0.44921-0.13281 0.91796-0.13281 1.40625v5.91015h-1.27344v-7.08594c0-0.35156-0.0391-0.68359-0.11328-1-0.0742-0.32031-0.19531-0.59765-0.36328-0.83203-0.16797-0.23437-0.39453-0.42187-0.67969-0.55468-0.28125-0.13672-0.625-0.20313-1.03125-0.20313-0.53906 0-1.00781 0.0977-1.40625 0.29297-0.39843 0.19531-0.72265 0.46484-0.97265 0.80859-0.2461 0.34766-0.4336 0.75-0.55469 1.21485-0.12109 0.46484-0.18359 0.97656-0.18359 1.52734v5.83203h-1.27344v-10.44531h1.17578"/><path d="m813.07422 112.125c-0.13281-0.53125-0.33203-1.00781-0.60547-1.42578-0.28125-0.41797-0.63281-0.75781-1.06641-1.02344-0.43359-0.26562-0.94922-0.39453-1.55859-0.39453-0.70313 0-1.28906 0.12109-1.76172 0.36328s-0.84766 0.56641-1.13281 0.97266c-0.28125 0.40625-0.48047 0.875-0.59766 1.41406-0.11328 0.54297-0.17187 1.10938-0.17187 1.70313 0 0.53906 0.0664 1.07421 0.19531 1.60937 0.12891 0.53125 0.33594 1.00781 0.625 1.42578s0.67187 0.75781 1.13672 1.02344c0.46094 0.26172 1.03515 0.39453 1.70703 0.39453 0.60937 0 1.125-0.13281 1.55859-0.39453 0.4336-0.26563 0.78516-0.60547 1.06641-1.02344 0.27344-0.41797 0.47266-0.89453 0.60547-1.42578 0.125-0.53516 0.1914-1.07031 0.1914-1.60937 0-0.53907-0.0664-1.07813-0.1914-1.60938zm-6.99219-3.61328v1.98437h0.0391c0.29688-0.73046 0.77735-1.29296 1.44532-1.6914 0.66796-0.39844 1.42578-0.59766 2.27734-0.59766 0.79687 0 1.48828 0.14844 2.07422 0.44531 0.58984 0.29688 1.07812 0.69922 1.46875 1.20313 0.39062 0.50781 0.67969 1.09375 0.87109 1.76172 0.1875 0.66797 0.28125 1.375 0.28125 2.11719 0 0.74218-0.0937 1.44531-0.28125 2.11718-0.1914 0.66407-0.48047 1.25391-0.87109 1.75782-0.39063 0.50781-0.87891 0.90234-1.46875 1.19531-0.58594 0.28906-1.27735 0.43359-2.07422 0.43359-0.375 0-0.75391-0.0469-1.13281-0.14062-0.375-0.0937-0.73047-0.23828-1.05078-0.42578-0.32422-0.1875-0.61329-0.42579-0.86329-0.70704-0.24609-0.28515-0.4414-0.61328-0.57421-0.99218h-0.043v5.82812h-1.27344v-14.28906h1.17578"/><path d="m823.01953 113.24609c-0.082 0.15235-0.23437 0.25782-0.46484 0.32422-0.23047 0.0703-0.4336 0.11719-0.60547 0.14063-0.54297 0.0977-1.09766 0.18359-1.67188 0.25781-0.57422 0.0703-1.09765 0.18359-1.5664 0.33203-0.47657 0.14844-0.86328 0.35938-1.16407 0.63672-0.30468 0.27734-0.45703 0.67188-0.45703 1.18359 0 0.32422 0.0625 0.61329 0.19141 0.85938 0.12891 0.25 0.30078 0.46484 0.51953 0.64844 0.21484 0.18359 0.46094 0.32031 0.74609 0.41406 0.28516 0.0977 0.57422 0.14453 0.8711 0.14453 0.48437 0 0.94922-0.0742 1.39453-0.22266 0.44531-0.14843 0.83203-0.36328 1.16406-0.64843 0.33203-0.28516 0.59375-0.62891 0.78906-1.03125 0.19532-0.40625 0.29297-0.86328 0.29297-1.37891v-1.66016zm-6.375-3.11328c0.21484-0.44531 0.50781-0.8125 0.87891-1.09375 0.37109-0.28515 0.80859-0.49609 1.30859-0.6289 0.49609-0.13282 1.05078-0.20313 1.65625-0.20313 0.46094 0 0.91797 0.043 1.37891 0.13281 0.45703 0.0898 0.87109 0.25391 1.23437 0.4961s0.66016 0.58203 0.89063 1.01953c0.22656 0.44141 0.34375 1.01172 0.34375 1.71094v5.54687c0 0.51172 0.25 0.76953 0.75 0.76953 0.14843 0 0.28125-0.0273 0.40234-0.082v1.07422c-0.14453 0.0273-0.27734 0.0469-0.39453 0.0625-0.11328 0.0117-0.25781 0.0195-0.43359 0.0195-0.32422 0-0.58594-0.0469-0.78125-0.13281-0.19532-0.0859-0.34766-0.21094-0.45313-0.375-0.10937-0.16016-0.17969-0.35547-0.21094-0.57813-0.0351-0.22265-0.0547-0.46484-0.0547-0.73828h-0.0391c-0.23047 0.33985-0.46093 0.64063-0.69531 0.90235-0.23828 0.26172-0.5 0.48437-0.79297 0.65625-0.28906 0.17578-0.62109 0.3125-0.99219 0.40625-0.37109 0.0937-0.8125 0.14062-1.32421 0.14062-0.48438 0-0.94141-0.0547-1.36719-0.17187-0.42578-0.11328-0.79688-0.29688-1.11328-0.54688-0.31641-0.24609-0.56641-0.5664-0.7461-0.94922-0.18359-0.38672-0.27734-0.83984-0.27734-1.36718 0-0.73047 0.16406-1.29688 0.48828-1.71094 0.32422-0.41016 0.75-0.72266 1.28516-0.94141 0.53125-0.21484 1.13281-0.36719 1.80078-0.45312 0.66797-0.0898 1.34765-0.17188 2.03515-0.25391 0.26954-0.0273 0.50391-0.0625 0.70704-0.10156 0.20312-0.0391 0.37109-0.10938 0.50781-0.21485 0.13281-0.0977 0.23828-0.23828 0.3125-0.41406 0.0742-0.17578 0.10937-0.40234 0.10937-0.6875 0-0.42969-0.0703-0.78515-0.21093-1.0625-0.14063-0.27734-0.33594-0.49609-0.58594-0.65625-0.25-0.16406-0.53906-0.27344-0.8711-0.33594-0.33203-0.0586-0.68359-0.0898-1.0625-0.0898-0.80859 0-1.47265 0.19141-1.98437 0.57422-0.51172 0.38672-0.78125 1.00391-0.80859 1.85547h-1.27344c0.0391-0.60938 0.16797-1.13281 0.38281-1.57813"/><path d="m828 108.51172v1.80078h0.0391c0.24219-0.63281 0.67578-1.14453 1.29688-1.52734 0.62109-0.38282 1.30078-0.57813 2.04297-0.57813 0.73046 0 1.33984 0.0977 1.83203 0.28516 0.49218 0.1875 0.88672 0.45312 1.18359 0.80078 0.29688 0.34375 0.50781 0.76562 0.62891 1.26562 0.12109 0.4961 0.17968 1.05469 0.17968 1.67579v6.72265h-1.27343v-6.51953c0-0.44531-0.0391-0.85937-0.1211-1.24219-0.082-0.38672-0.22265-0.71875-0.42578-1.0039-0.20312-0.28125-0.47656-0.50391-0.82031-0.66797-0.34375-0.16016-0.77344-0.24219-1.28516-0.24219s-0.96875 0.0898-1.36718 0.27344c-0.39844 0.17969-0.73438 0.43359-1.01172 0.75-0.27344 0.3164-0.49219 0.6914-0.64453 1.13281-0.15625 0.4375-0.24219 0.91406-0.25391 1.42578v6.09375h-1.27734v-10.44531h1.2773"/></g><g clip-path="url(#a)"><path d="m837.65234 108.51172 3.44141 8.90625 3.21875-8.90625h1.27734l-4.53515 12.02344c-0.19141 0.44531-0.36328 0.8125-0.52735 1.10156-0.16015 0.29297-0.33984 0.51953-0.53515 0.6875-0.19532 0.16797-0.42578 0.28906-0.6875 0.36719-0.26563 0.0742-0.59766 0.10937-1.00391 0.10937-0.25391-0.0156-0.45703-0.0234-0.59766-0.0312-0.14062-4e-3 -0.26562-0.0312-0.375-0.0703v-1.07428c0.14844 0.0273 0.29297 0.0508 0.4375 0.0742 0.14063 0.0195 0.28516 0.0312 0.4336 0.0312 0.28515 0 0.51953-0.043 0.69922-0.125 0.17968-0.0781 0.33984-0.19141 0.47265-0.33203 0.13672-0.14063 0.25-0.3125 0.34766-0.51563 0.0937-0.20312 0.19531-0.42578 0.30078-0.67187l0.44922-1.17188-4.17188-10.40234h1.35547" fill="currentColor"/></g></g></svg>
